<?xml version="1.0" standalone="no"?>
<!DOCTYPE svg PUBLIC "-//W3C//DTD SVG 20010904//EN"
 "http://www.w3.org/TR/2001/REC-SVG-20010904/DTD/svg10.dtd">
<svg version="1.0" xmlns="http://www.w3.org/2000/svg"
 width="1162.000000pt" height="1139.000000pt" viewBox="0 0 1162.000000 1139.000000"
 preserveAspectRatio="xMidYMid meet">
<metadata>
Created by potrace 1.15, written by Peter Selinger 2001-2017
</metadata>
<g transform="translate(0.000000,1139.000000) scale(0.100000,-0.100000)"
fill="#000000" stroke="none">
<path d="M5520 11184 c-25 -2 -106 -8 -180 -14 -374 -31 -788 -111 -1158 -226
-703 -218 -1328 -560 -1917 -1050 -163 -135 -527 -499 -665 -664 -712 -855
-1127 -1825 -1261 -2941 -27 -223 -37 -750 -20 -991 80 -1087 455 -2089 1107
-2948 159 -210 281 -348 503 -571 288 -287 530 -485 861 -704 1269 -840 2859
-1113 4345 -745 827 204 1578 588 2238 1143 160 134 498 470 631 627 771 908
1220 2005 1307 3198 17 244 7 767 -21 997 -132 1108 -550 2082 -1260 2935
-138 165 -502 529 -665 664 -884 735 -1870 1150 -3015 1272 -136 14 -721 27
-830 18z m675 -305 c1596 -110 3061 -966 3962 -2314 343 -514 599 -1107 739
-1717 49 -216 106 -564 103 -637 -1 -14 -9 31 -19 100 -163 1115 -735 2117
-1613 2824 -654 526 -1428 850 -2277 951 -184 21 -634 30 -830 15 -542 -42
-1045 -172 -1542 -402 -638 -293 -1233 -773 -1647 -1326 -116 -156 -291 -418
-291 -437 0 -3 1366 -6 3036 -6 2886 0 3035 -1 3030 -17 -3 -10 -10 -47 -16
-83 -6 -36 -16 -86 -22 -112 l-10 -48 -3086 -2 -3085 -3 -38 -82 -38 -83 3109
0 c1711 0 3110 -1 3110 -3 0 -2 -11 -61 -25 -132 -14 -72 -25 -131 -25 -132 0
-2 -1413 -4 -3141 -5 l-3141 -3 -29 -79 c-16 -44 -29 -81 -29 -83 0 -2 1420
-3 3156 -3 l3156 0 -5 -22 c-3 -13 -13 -63 -22 -113 -9 -49 -19 -98 -21 -107
-5 -17 -165 -18 -3174 -18 l-3168 0 -19 -82 -19 -83 3173 -3 c1745 -1 3173 -5
3173 -10 0 -8 -37 -204 -45 -239 l-5 -23 -3174 0 -3174 0 -11 -75 c-6 -42 -11
-80 -11 -85 0 -7 1153 -10 3170 -10 1744 0 3170 -2 3170 -4 0 -6 -39 -213 -45
-243 l-5 -23 -817 -2 -816 -3 -89 -475 c-48 -261 -241 -1300 -429 -2308 -188
-1008 -339 -1836 -336 -1839 4 -3 59 -13 124 -21 182 -23 772 -23 963 1 407
51 753 135 1090 264 1499 575 2569 1904 2805 3483 26 175 33 163 10 -17 -113
-876 -458 -1726 -993 -2442 -281 -377 -669 -765 -1057 -1058 -776 -586 -1737
-947 -2727 -1023 -178 -13 -611 -13 -786 0 -997 79 -1950 436 -2727 1023 -286
216 -666 574 -871 822 -628 758 -1025 1636 -1164 2576 -42 285 -53 445 -54
764 0 387 20 619 84 973 335 1828 1665 3369 3428 3973 676 231 1353 318 2077
268z m1785 -5706 c75 -46 94 -133 66 -302 -23 -135 -60 -285 -85 -343 -35 -83
-104 -144 -192 -171 -10 -3 -19 -22 -23 -49 -4 -23 -11 -60 -17 -80 l-10 -38
-84 0 c-97 0 -94 -4 -70 95 8 32 13 61 11 63 -2 1 -23 13 -47 25 -58 29 -89
88 -89 168 0 59 36 251 70 377 39 143 100 225 194 262 72 28 225 24 276 -7z
m630 5 c64 -33 84 -74 85 -168 0 -112 2 -110 -106 -110 l-92 0 6 56 c7 69 2
84 -30 84 -67 0 -90 -43 -137 -263 -50 -230 -48 -267 15 -267 39 0 56 21 80
101 l21 69 94 0 c52 0 94 -3 94 -6 0 -3 -7 -31 -16 -62 -53 -182 -144 -264
-295 -264 -157 0 -223 59 -221 197 1 77 39 276 77 400 55 182 142 253 310 254
54 1 81 -4 115 -21z m-1500 -3 c0 -3 -13 -66 -30 -140 -16 -74 -30 -139 -30
-145 0 -6 32 -10 78 -10 l79 0 17 83 c10 45 24 112 33 150 l15 67 94 0 c86 0
95 -2 90 -17 -2 -10 -41 -191 -86 -403 -45 -211 -84 -388 -86 -392 -8 -12
-184 -10 -184 2 0 6 16 83 35 173 19 89 35 165 35 170 0 4 -35 7 -78 7 l-79 0
-33 -157 c-47 -224 -33 -203 -140 -203 -49 0 -90 3 -90 6 0 4 38 186 85 406
47 219 85 401 85 403 0 3 43 5 95 5 52 0 95 -2 95 -5z m2073 -1425 c31 -55 57
-102 57 -105 0 -3 -38 -5 -84 -5 l-85 0 -22 40 -23 40 -41 -40 -41 -40 -89 0
-90 0 105 105 105 105 75 0 76 0 57 -100z m-1430 -124 c95 -22 140 -79 141
-181 1 -33 -3 -77 -7 -98 l-8 -38 -97 3 -97 3 3 67 c3 58 1 68 -16 77 -62 33
-139 -14 -162 -99 -25 -94 -71 -318 -76 -375 -6 -52 -4 -62 15 -79 24 -22 82
-17 111 9 17 15 49 81 65 133 6 21 4 22 -50 22 -42 0 -56 3 -53 13 3 6 11 42
18 80 l14 67 154 0 c119 0 153 -3 150 -12 -3 -7 -27 -118 -54 -245 l-48 -233
-83 0 c-66 0 -81 3 -77 14 4 10 -10 6 -42 -10 -111 -56 -262 -14 -315 86 -21
41 -13 163 21 325 50 239 89 338 159 403 77 71 207 98 334 68z m-838 -228 c23
-120 44 -220 47 -223 3 -3 8 18 12 47 7 55 63 350 72 381 5 15 19 17 106 17
76 0 99 -3 96 -12 -3 -7 -45 -205 -94 -441 l-89 -428 -100 3 -100 3 -41 210
c-22 116 -43 217 -46 225 -2 8 -8 -12 -12 -45 -6 -54 -60 -334 -72 -377 -5
-16 -19 -18 -105 -18 -91 0 -100 2 -95 18 2 9 43 202 91 427 47 226 88 416 90
423 4 9 29 12 102 10 l97 -3 41 -217z m1351 205 c-7 -25 -66 -295 -66 -305 0
-4 38 -8 85 -8 l84 0 10 38 c5 20 22 94 37 165 l27 127 100 0 c98 0 99 0 95
-22 -3 -13 -45 -211 -94 -440 l-89 -418 -97 0 c-87 0 -98 2 -98 18 1 9 18 94
39 187 l37 170 -84 3 c-47 2 -86 1 -88 0 -2 -2 -19 -80 -39 -173 -20 -94 -38
-178 -41 -187 -5 -16 -19 -18 -105 -18 -91 0 -100 2 -95 18 3 9 44 199 91 422
47 223 88 413 91 423 5 15 19 17 105 17 91 0 100 -2 95 -17z m968 -19 c-4 -20
-12 -57 -18 -83 l-12 -46 -141 -3 -142 -3 -11 -57 c-7 -31 -14 -67 -17 -79 -5
-23 -5 -23 119 -23 69 0 127 -2 130 -5 3 -3 -2 -40 -11 -83 l-17 -77 -132 -3
c-73 -1 -132 -4 -132 -6 0 -2 -9 -48 -20 -101 -11 -53 -20 -101 -20 -106 0 -5
63 -9 141 -9 109 0 140 -3 137 -12 -3 -7 -11 -43 -18 -80 l-14 -68 -244 0
c-227 0 -243 1 -238 18 3 9 44 199 91 422 47 223 88 413 91 423 5 16 25 17
245 17 l240 0 -7 -36z m-349 -901 c-3 -21 -11 -59 -17 -85 l-10 -48 -95 0
c-73 0 -94 3 -90 13 2 7 10 39 16 72 7 33 14 66 16 73 3 8 32 12 96 12 l91 0
-7 -37z"/>
<path d="M2164 5843 c-9 -100 2 -426 21 -613 83 -803 381 -1566 861 -2205 107
-142 133 -173 134 -157 0 7 126 690 280 1518 154 827 280 1511 280 1519 0 13
-90 15 -784 15 l-784 0 -8 -77z"/>
<path d="M5090 5176 c0 -5 -54 -266 -65 -313 -4 -16 -14 -23 -37 -25 -33 -3
-37 -9 -52 -90 -7 -37 -6 -38 24 -38 16 0 30 -1 30 -3 0 -1 -16 -76 -35 -166
-19 -90 -35 -165 -35 -167 0 -2 82 -4 182 -4 164 0 186 2 225 21 103 50 165
168 214 410 45 224 36 293 -45 353 -25 19 -44 21 -217 24 -104 2 -189 1 -189
-2z m279 -178 c13 -23 13 -39 3 -110 -17 -115 -59 -276 -82 -313 -24 -39 -58
-55 -114 -55 l-44 0 8 38 c5 20 13 63 20 95 l11 57 43 0 43 0 17 58 c9 32 16
61 16 65 0 3 -19 7 -42 9 -49 3 -47 -3 -23 111 l17 78 56 -3 c49 -3 58 -6 71
-30z"/>
<path d="M5851 5158 c-5 -13 -86 -193 -180 -402 -94 -208 -171 -380 -171 -382
0 -3 44 -3 97 -2 l97 3 36 90 36 90 72 3 72 3 0 -96 0 -95 97 0 96 0 -6 203
c-4 111 -7 293 -7 405 l0 202 -115 0 c-110 0 -116 -1 -124 -22z"/>
<path d="M6350 5128 c-6 -29 -42 -204 -81 -388 -38 -184 -72 -343 -75 -353 -5
-16 2 -18 87 -15 l93 3 82 390 c46 215 83 396 83 403 1 9 -23 12 -88 12 l-89
0 -12 -52z"/>
<path d="M5695 4338 c-7 -23 -25 -119 -25 -134 0 -12 15 -14 82 -12 l83 3 16
78 17 77 -84 0 c-59 0 -86 -4 -89 -12z"/>
<path d="M4360 3745 l-95 -95 86 0 c84 0 85 0 119 35 19 19 37 35 40 35 4 0
14 -16 23 -35 l17 -35 85 0 86 0 -36 63 c-20 34 -43 77 -52 95 l-17 32 -81 0
-80 0 -95 -95z"/>
<path d="M3700 3615 c-133 -41 -199 -172 -266 -519 -41 -219 -24 -300 74 -347
38 -19 64 -23 133 -23 73 0 93 4 143 28 86 42 131 111 179 274 l16 52 -98 0
-98 0 -17 -64 c-26 -95 -48 -126 -90 -126 -45 0 -66 22 -66 70 0 49 67 371 87
422 21 53 67 90 107 86 l31 -3 3 -72 3 -73 89 0 c89 0 90 0 97 28 5 15 7 57 7
94 -2 86 -31 140 -89 168 -50 24 -175 26 -245 5z"/>
<path d="M4332 3611 c-100 -35 -168 -127 -212 -289 -42 -154 -72 -335 -68
-413 4 -93 21 -122 94 -159 41 -21 63 -25 134 -24 140 1 219 36 279 123 99
147 175 601 116 699 -36 59 -77 76 -190 80 -78 2 -112 -2 -153 -17z m159 -158
c9 -10 14 -38 13 -77 -2 -67 -68 -375 -90 -417 -21 -42 -62 -69 -104 -69 -76
0 -80 46 -26 296 41 186 58 237 94 264 31 25 94 27 113 3z"/>
<path d="M5742 3611 c-131 -46 -190 -158 -257 -490 -33 -163 -32 -272 1 -318
53 -74 215 -104 297 -55 45 26 47 26 47 7 0 -12 15 -15 75 -15 69 0 75 2 80
23 18 77 95 449 95 458 0 6 -54 9 -147 7 l-147 -3 -17 -77 -17 -78 54 0 c54 0
54 0 48 -27 -11 -49 -45 -112 -71 -133 -31 -24 -95 -27 -114 -4 -20 24 -13
104 26 283 52 244 77 286 167 279 54 -4 70 -30 59 -100 l-8 -48 97 0 97 0 7
38 c20 122 -8 210 -79 246 -57 30 -219 34 -293 7z"/>
<path d="M4905 3598 c-2 -7 -40 -186 -85 -398 -45 -212 -85 -402 -90 -422 l-8
-38 97 0 97 0 37 188 c20 103 39 206 43 230 3 24 8 41 10 39 3 -2 22 -96 44
-208 22 -112 42 -214 45 -226 5 -22 10 -23 99 -23 l94 0 12 53 c29 135 170
808 170 812 0 3 -42 5 -94 5 -82 0 -95 -2 -100 -17 -9 -31 -65 -326 -72 -381
-7 -53 -24 -82 -24 -40 0 13 -18 115 -40 226 -22 112 -40 206 -40 208 0 2 -43
4 -95 4 -68 0 -97 -4 -100 -12z"/>
<path d="M7742 5006 c-32 -37 -41 -69 -88 -306 -31 -162 -27 -190 31 -190 78
0 100 35 144 235 56 256 53 295 -18 295 -32 0 -45 -6 -69 -34z"/>
</g>
</svg>
