<svg id="Layer_1" data-name="Layer 1" xmlns="http://www.w3.org/2000/svg" viewBox="0 0 226.97 227.94"><defs><style>.cls-1{fill:#565a5b;}.cls-2{fill:#c1db2c;}</style></defs><title>drone_main</title><path class="cls-1" d="M247.11,230.74l-24-23.14c-19.08-19.08-25.56-38.72-25.94-56.23h0c.37-17.51,6.86-37.16,25.93-56.24l24.24-26a16.65,16.65,0,1,0-16.47-15.27l-.12-.12-24.06,25C187.62,97.8,168,104.28,150.46,104.65c-17.51-.37-37.16-6.85-56.24-25.93l-24.06-25-.12.12A16.54,16.54,0,1,0,53.57,69.16l24.24,26c19.08,19.08,25.56,38.73,25.93,56.24h0c-.37,17.51-6.86,37.15-25.94,56.23l-24,23.14A16.62,16.62,0,1,0,70.1,246.52L94.21,224h0c19.08-19.08,38.73-25.57,56.24-25.95h0c17.51.37,37.16,6.86,56.24,25.95h0l24.11,22.5a16.57,16.57,0,1,0,16.29-15.78Zm-96.65-79.37h0Z" transform="translate(-36.97 -35.97)"/><path class="cls-2" d="M193.61,185.26a5.6,5.6,0,0,1-5.6,5.6h-9.5a5.59,5.59,0,0,1-5.6-5.6h0a5.6,5.6,0,0,1,5.6-5.6H188a5.6,5.6,0,0,1,5.6,5.6Z" transform="translate(-36.97 -35.97)"/><circle class="cls-2" cx="114.85" cy="113.97" r="29.27"/></svg>