<svg id="Layer_1" data-name="Layer 1" xmlns="http://www.w3.org/2000/svg" viewBox="0 0 105.29 105.3"><defs><style>.cls-1{fill:#c1db2c;}.cls-2{fill:#09c5d3;}</style></defs><title>fan</title><polygon class="cls-1" points="44.59 0 60.71 0 52.65 52.65 44.59 0"/><polygon class="cls-1" points="105.29 60.71 52.65 52.65 105.29 44.58 105.29 60.71"/><polygon class="cls-1" points="60.71 105.3 44.59 105.3 52.65 52.65 60.71 105.3"/><polygon class="cls-1" points="0 44.58 52.65 52.65 0 60.71 0 44.58"/><path class="cls-2" d="M58.67,52.29A6.31,6.31,0,1,1,52.35,46,6.32,6.32,0,0,1,58.67,52.29Z" transform="translate(0.29 0.37)"/><path class="cls-2" d="M52.35,61.48a9.19,9.19,0,1,1,9.2-9.19A9.2,9.2,0,0,1,52.35,61.48Zm0-12.62a3.42,3.42,0,1,0,3.43,3.43A3.43,3.43,0,0,0,52.35,48.86Z" transform="translate(0.29 0.37)"/></svg>