<svg id="Layer_1" data-name="Layer 1" xmlns="http://www.w3.org/2000/svg" viewBox="0 0 43.16 49.08"><defs><style>.cls-1{fill:#222626;}.cls-2{fill:#5c1c14;}.cls-3{fill:#842720;}.cls-4{fill:#1e2121;}.cls-5{fill:#9b241b;}.cls-6{fill:#cdd3d3;}</style></defs><title>main_drone</title><path class="cls-1" d="M44.81,35.45l-15.13-10a.58.58,0,0,1,0-1l15.1-10a.59.59,0,0,0,.25-.7.56.56,0,0,0-.78-.3L28,21.52a.58.58,0,0,1-.84-.48L26,2.94a.59.59,0,0,0-.48-.56.56.56,0,0,0-.65.52L23.8,21a.58.58,0,0,1-.83.48L6.72,13.44a.59.59,0,0,0-.73.13.56.56,0,0,0,.13.82l15.13,10a.58.58,0,0,1,0,1l-15.1,10a.59.59,0,0,0-.25.7.56.56,0,0,0,.78.3l16.25-8.09a.58.58,0,0,1,.84.48l1.14,18.1a.59.59,0,0,0,.48.56.56.56,0,0,0,.65-.52l1.12-18.12a.58.58,0,0,1,.83-.48l16.24,8.06a.59.59,0,0,0,.73-.13A.56.56,0,0,0,44.81,35.45Z" transform="translate(-3.89 -0.38)"/><ellipse class="cls-2" cx="21.54" cy="2.15" rx="2.22" ry="2.15"/><ellipse class="cls-3" cx="21.54" cy="2.15" rx="1.63" ry="1.58"/><ellipse class="cls-4" cx="21.54" cy="2.15" rx="0.62" ry="0.6"/><circle class="cls-1" cx="25.4" cy="2.51" r="1.22" transform="translate(-1.85 12.42) rotate(-29.41)"/><circle class="cls-5" cx="25.4" cy="2.51" r="0.42" transform="translate(-1.85 12.42) rotate(-29.41)"/><ellipse class="cls-2" cx="6.06" cy="13.77" rx="2.22" ry="2.15" transform="translate(-12.78 11.75) rotate(-60)"/><ellipse class="cls-3" cx="6.06" cy="13.77" rx="1.63" ry="1.58" transform="translate(-12.78 11.75) rotate(-60)"/><ellipse class="cls-4" cx="6.06" cy="13.77" rx="0.62" ry="0.6" transform="translate(-12.78 11.75) rotate(-60)"/><circle class="cls-1" cx="6.03" cy="13.77" r="1.22" transform="translate(-11.69 19.28) rotate(-89.41)"/><circle class="cls-5" cx="6.03" cy="13.77" r="0.42" transform="translate(-11.69 19.28) rotate(-89.41)"/><ellipse class="cls-2" cx="6.1" cy="36.15" rx="2.15" ry="2.22" transform="translate(-21.14 7.51) rotate(-30)"/><ellipse class="cls-3" cx="6.1" cy="36.15" rx="1.58" ry="1.63" transform="translate(-21.14 7.51) rotate(-30)"/><ellipse class="cls-4" cx="6.1" cy="36.15" rx="0.6" ry="0.62" transform="translate(-21.14 7.51) rotate(-30)"/><circle class="cls-1" cx="6.09" cy="36.18" r="1.22" transform="translate(-32.04 22.63) rotate(-59.41)"/><circle class="cls-5" cx="6.09" cy="36.18" r="0.42" transform="matrix(0.51, -0.86, 0.86, 0.51, -32.04, 22.63)"/><ellipse class="cls-2" cx="21.62" cy="46.92" rx="2.22" ry="2.15"/><ellipse class="cls-3" cx="21.62" cy="46.92" rx="1.63" ry="1.58"/><ellipse class="cls-4" cx="21.62" cy="46.92" rx="0.62" ry="0.6"/><circle class="cls-1" cx="25.53" cy="47.33" r="1.22" transform="translate(-23.84 18.26) rotate(-29.41)"/><circle class="cls-5" cx="25.53" cy="47.33" r="0.42" transform="translate(-23.84 18.26) rotate(-29.41)"/><ellipse class="cls-2" cx="44.87" cy="36.08" rx="2.22" ry="2.15" transform="translate(-12.69 56.52) rotate(-60)"/><ellipse class="cls-3" cx="44.87" cy="36.08" rx="1.63" ry="1.58" transform="translate(-12.69 56.52) rotate(-60)"/><ellipse class="cls-4" cx="44.87" cy="36.08" rx="0.62" ry="0.6" transform="translate(-12.69 56.52) rotate(-60)"/><circle class="cls-1" cx="44.91" cy="36.07" r="1.22" transform="translate(4.49 80.22) rotate(-89.41)"/><circle class="cls-5" cx="44.91" cy="36.07" r="0.42" transform="translate(4.49 80.22) rotate(-89.41)"/><ellipse class="cls-2" cx="44.83" cy="13.69" rx="2.15" ry="2.22" transform="translate(-4.73 23.87) rotate(-30)"/><ellipse class="cls-3" cx="44.83" cy="13.69" rx="1.58" ry="1.63" transform="translate(-4.73 23.87) rotate(-30)"/><ellipse class="cls-4" cx="44.83" cy="13.69" rx="0.6" ry="0.62" transform="translate(-4.73 23.87) rotate(-30)"/><circle class="cls-1" cx="44.84" cy="13.66" r="1.22" transform="translate(6.38 44.93) rotate(-59.41)"/><circle class="cls-5" cx="44.84" cy="13.66" r="0.42" transform="translate(6.38 44.93) rotate(-59.41)"/><circle class="cls-2" cx="21.58" cy="24.54" r="3"/><circle class="cls-6" cx="21.58" cy="24.54" r="0.95"/></svg>